# AST/ASF file generated using VICON BodyLanguage
# -----------------------------------------------
:version 1.10
:name VICON
:units
  mass 1.0
  length 0.45
  angle deg
:documentation
   .ast/.asf automatically generated from VICON data using
   VICON BodyBuilder and BodyLanguage model FoxedUp or BRILLIANT.MOD
:root
   order TX TY TZ RX RY RZ
   axis XYZ
   position 0 0 0  
   orientation 0 0 0 
:bonedata
  begin
     id 1 
     name lhipjoint
     direction 0.541323 -0.757556 0.364798 
     length 2.47576 
     axis 0 0 0  XYZ
  end
  begin
     id 2 
     name lfemur
     direction 0.34202 -0.939693 0  
     length 7.46493  
     axis 0 0 20  XYZ
    dof rx ry rz
    limits (-160.0 20.0)
           (-70.0 70.0)
           (-60.0 70.0)
  end
  begin
     id 3 
     name ltibia
     direction 0.34202 -0.939693 0   
     length 7.73805   
     axis 0 0 20   XYZ
    dof rx
    limits (-10.0 170.0)
  end
  begin
     id 4 
     name lfoot
     direction 0.107174 -0.294458 0.949636   
     length 2.25864   
     axis -90 7.62852e-016 20   XYZ
    dof rx rz
    limits (-45.0 90.0)
           (-70.0 20.0)
  end
  begin
     id 5 
     name ltoes
     direction 1.53606e-011 -4.21934e-011 1   
     length 1.12451   
     axis -90 7.62852e-016 20   XYZ
    dof rx
    limits (-90.0 20.0)
  end
  begin
     id 6 
     name rhipjoint
     direction -0.524745 -0.766967 0.36933   
     length 2.44538  
     axis 0 0 0  XYZ 
  end
  begin
     id 7 
     name rfemur
     direction -0.34202 -0.939693 0   
     length 7.61604   
     axis 0 0 -20   XYZ
    dof rx ry rz
    limits (-160.0 20.0)
           (-70.0 70.0)
           (-70.0 60.0)
  end
  begin
     id 8 
     name rtibia
     direction -0.34202 -0.939693 0   
     length 7.61056   
     axis 0 0 -20   XYZ
    dof rx
    limits (-10.0 170.0)
 end
 begin
     id 9 
     name rfoot
     direction -0.12616 -0.346623 0.929482   
     length 2.46372  
     axis -90 -7.62852e-016 -20   XYZ
    dof rx rz
    limits (-45.0 90.0)
           (-20.0 70.0)
  end
  begin
     id 10 
     name rtoes
     direction -1.53531e-011 -4.22004e-011 1   
     length 1.21611   
     axis -90 -7.62852e-016 -20   XYZ
    dof rx
    limits (-90.0 20.0)
  end
  begin
     id 11 
     name lowerback
     direction -0.000778023 0.997293 -0.0735223   
     length 2.06139   
     axis 0 0 0   XYZ
    dof rx ry rz
    limits (-20.0 45.0)
           (-30.0 30.0)
           (-30.0 30.0)
  end
  begin
     id 12 
     name upperback
     direction 0.0222598 0.999722 -0.0078355   
     length 2.06383   
     axis 0 0 0   XYZ
    dof rx ry rz
    limits (-20.0 45.0)
           (-30.0 30.0)
           (-30.0 30.0)
  end
  begin
     id 13 
     name thorax
     direction 0.0219654 0.999405 0.0265994   
     length 2.07163   
     axis 0 0 0   XYZ
    dof rx ry rz
    limits (-20.0 45.0)
           (-30.0 30.0)
           (-30.0 30.0)
  end
  begin
     id 14 
     name lowerneck
     direction 0.0213282 0.988147 0.15202   
     length 1.75969   
     axis 0 0 0   XYZ
    dof rx ry rz
    limits (-20.0 45.0)
           (-30.0 30.0)
           (-30.0 30.0)
  end
  begin
     id 15 
     name upperneck
     direction -0.0546456 0.982624 -0.177379   
     length 1.79244   
     axis 0 0 0   XYZ
    dof rx ry rz
    limits (-20.0 45.0)
           (-30.0 30.0)
           (-30.0 30.0)
  end
  begin
     id 16
     name head
     direction -0.0199987 0.996855 -0.076686  
     length 1.80555  
     axis 0 0 0   XYZ
    dof rx ry rz
    limits (-20.0 45.0)
           (-30.0 30.0)
           (-30.0 30.0)
  end
  begin
     id 17 
     name lclavicle
     direction 0.929565 0.363219 -0.063096  
     length 3.55722  
     axis 0 0 0   XYZ
    dof ry rz
    limits (-20.0 10.0)
           (0.0 20.0)
  end
  begin
     id 18 
     name lhumerus
     direction 1 -4.48993e-011 -2.36203e-027   
     length 4.92785   
     axis 180 -30 -90   XYZ
    dof rx ry rz
    limits (-60.0 90.0)
           (-90.0 90.0)
           (-90.0 90.0)
  end
  begin
     id 19
     name lradius
     direction 1 -4.48947e-011 2.02997e-027   
     length 3.44052   
     axis 180 -30 -90   XYZ
    dof rx
    limits (-10.0 170.0)
  end
  begin
     id 20
     name lwrist
     direction 1 -4.48962e-011 1.45991e-027   
     length 1.72026   
     axis 1.49639e-024 90 90   XYZ
    dof ry
    limits (-180.0 0.0)
 end
  begin
     id 21 
     name lhand
     direction 1 -4.48984e-011 2.91906e-027   
     length 0.654326   
     axis -1.863e-015 90 90   XYZ
    dof rx rz
    limits (-90.0 90.0)
           (-45.0 45.0)
  end
  begin
     id 22 
     name lfingers
     direction 1 -4.48961e-011 5.83968e-027   
     length 0.527534   
     axis -3.72598e-015 90 90   XYZ
    dof rx
    limits (0.0 90.0)
  end
  begin
     id 23
     name lthumb
     direction 0.707107 -6.34963e-011 0.707107   
     length 0.757437   
     axis -90 45 -6.68868e-015   XYZ
    dof rx rz
    limits (-45.0 45.0)
           (-45.0 45.0)
  end
  begin
     id 24 
     name rclavicle
     direction -0.902944 0.422599 -0.0781198   
     length 3.54432  
     axis 0 0 0   XYZ 
    dof ry rz
    limits (-10.0 20.0)
           (-20.0 0.0)
  end
  begin
     id 25 
     name rhumerus
     direction -1 -4.48953e-011 -4.75835e-028  
     length 5.09181   
     axis 180 30 90   XYZ
    dof rx ry rz
    limits (-90.0 60.0)
           (-90.0 90.0)
           (-90.0 90.0)
  end
  begin
     id 26 
     name rradius
     direction -1 -4.48986e-011 -3.25889e-027   
     length 3.49865   
     axis 180 30 90   XYZ
    dof rx
    limits (-10.0 170.0)
  end
  begin
     id 27 
     name rwrist
     direction -1 -4.48963e-011 1.45989e-027   
     length 1.74933   
     axis 1.49639e-024 -90 -90   XYZ
    dof ry
    limits (-180.0 0.0)
  end
  begin
     id 28
     name rhand
     direction -1 -4.49003e-011 2.91844e-027   
     length 0.66641   
     axis -1.863e-015 -90 -90   XYZ
    dof rx rz
    limits (-90.0 90.0)
           (-45.0 45.0)
  end
  begin
     id 29
     name rfingers
     direction -1 -4.48973e-011 5.83886e-027   
     length 0.537277   
     axis -3.72598e-015 -90 -90   XYZ
    dof rx
    limits (0.0 90.0)
  end
  begin
     id 30
     name rthumb
     direction -0.707107 -6.34976e-011 0.707107   
     length 0.771425   
     axis -90 -45 6.68868e-015   XYZ
    dof rx rz
    limits (-45.0 45.0)
           (-45.0 45.0)
  end
:hierarchy
  begin
    root lhipjoint rhipjoint lowerback
    lhipjoint lfemur
    lfemur ltibia
    ltibia lfoot
    lfoot ltoes
    rhipjoint rfemur
    rfemur rtibia
    rtibia rfoot
    rfoot rtoes
    lowerback upperback
    upperback thorax
    thorax lowerneck lclavicle rclavicle
    lowerneck upperneck
    upperneck head
    lclavicle lhumerus
    lhumerus lradius
    lradius lwrist
    lwrist lhand lthumb
    lhand lfingers
    rclavicle rhumerus
    rhumerus rradius
    rradius rwrist
    rwrist rhand rthumb
    rhand rfingers
  end

#!OML:ASF H:\LiuWeirdWalks\Patient Classification 1\Patient 1\Session 1\male.ASF
:FULLY-SPECIFIED
:DEGREES
1
root -1.22045 17.8133 -29.7325 5.23086 52.7846 5.34118
lowerback 2.54063 5.85307 1.75491
upperback 0.24598 7.88039 1.75574
thorax -1.17366 3.93504 0.55032
lowerneck 0.757944 17.8322 21.2454
upperneck 11.1536 27.5967 -22.0324
head 9.55307 13.5026 -7.16211
rclavicle -3.82536e-014 -3.97569e-014
rhumerus -33.1236 -4.55678 -76.7816
rradius 20.9818
rwrist -4.73998
rhand -13.0943 1.96992
rfingers 7.12502
rthumb 13.0023 -27.6049
lclavicle -3.82536e-014 -3.97569e-014
lhumerus -40.6102 -21.1524 102.65
lradius 34.2952
lwrist 25.7773
lhand 11.7025 11.8547
lfingers 7.12502
lthumb 36.7392 37.9862
rfemur 0.870254 -17.6398 15.1789
rtibia 28.1644
rfoot -22.599 -42.819
rtoes 3.33213
lfemur -16.6708 -7.78898 -19.2265
ltibia 26.5202
lfoot -9.61424 -17.1308
ltoes -19.3452
2
root -1.21803 17.8132 -29.7383 5.17518 52.6124 5.2867
lowerback 2.5845 5.70322 1.70761
upperback 0.327057 7.68115 1.87409
thorax -1.13742 3.83701 0.701834
lowerneck 0.94215 17.9739 20.9273
upperneck 10.6783 27.789 -22.2611
head 9.39636 13.5997 -7.17064
rclavicle 1.05468e-013 7.95139e-015
rhumerus -31.8008 -6.70817 -76.1417
rradius 19.4734
rwrist -2.5106
rhand -13.6488 2.24188
rfingers 7.12502
rthumb 12.4677 -27.3662
lclavicle 1.05468e-013 7.95139e-015
lhumerus -40.6451 -20.8928 102.786
lradius 34.7753
lwrist 27.074
lhand 11.967 12.7748
lfingers 7.12502
lthumb 36.9895 38.842
rfemur 0.838191 -17.5279 15.1718
rtibia 28.1727
rfoot -22.5114 -42.7853
rtoes 3.26822
lfemur -16.6442 -7.71374 -19.2058
ltibia 26.5213
lfoot -9.61718 -17.0677
ltoes -17.3591
3
root -1.21178 17.8137 -29.74 5.20409 52.2837 5.25295
lowerback 2.4161 5.54982 1.53765
upperback 0.430412 7.46742 2.00602
thorax -0.976271 3.73322 0.958169
lowerneck 1.28841 18.1447 20.7386
upperneck 10.093 28.0563 -22.6374
head 9.23902 13.7485 -7.24081
rclavicle -1.40864e-013 -4.77083e-015
rhumerus -30.5258 -9.06334 -75.5289
rradius 17.9233
rwrist 1.1231
rhand -13.2085 2.1875
rfingers 7.12502
rthumb 12.8922 -27.3943
lclavicle -1.40864e-013 -4.77083e-015
lhumerus -40.535 -20.3354 102.768
lradius 35.1753
lwrist 28.1997
lhand 12.2414 13.9002
lfingers 7.12502
lthumb 37.249 39.8999
rfemur 0.729239 -17.3992 15.1478
rtibia 28.199
rfoot -22.3611 -42.6453
rtoes 3.227
lfemur -16.6574 -7.46318 -19.1945
ltibia 26.5194
lfoot -9.63962 -17.036
ltoes -15.258
4
root -1.20887 17.8142 -29.7464 5.24412 52.1909 5.28588
lowerback 2.44565 5.49844 1.43304
upperback 0.409334 7.3985 2.04429
thorax -1.03209 3.6991 1.05074
lowerneck 1.60848 18.1423 20.5739
upperneck 9.68568 28.0042 -22.6226
head 9.00573 13.7547 -7.26403
rclavicle 9.14161e-014 -1.11319e-014
rhumerus -31.0825 -8.32689 -75.568
rradius 18.5569
rwrist 0.26852
rhand -13.5967 2.28669
rfingers 7.12502
rthumb 12.518 -27.3184
lclavicle 9.14161e-014 -1.11319e-014
lhumerus -40.6401 -20.1264 102.835
lradius 35.3293
lwrist 28.6347
lhand 12.2859 14.2126
lfingers 7.12502
lthumb 37.2911 40.2013
rfemur 0.685907 -17.3987 15.0832
rtibia 28.2185
rfoot -22.2543 -42.5816
rtoes 3.19909
lfemur -16.6651 -7.35184 -19.2413
ltibia 26.5206
lfoot -9.66974 -17.0598
ltoes -14.6335
5
root -1.20525 17.815 -29.7512 5.25846 52.0151 5.27426
lowerback 2.41981 5.40967 1.33424
upperback 0.444059 7.27749 2.11057
thorax -1.00172 3.63969 1.17979
lowerneck 1.84207 18.2221 20.3304
upperneck 9.22644 28.0558 -22.6581
head 8.7928 13.8002 -7.26061
rclavicle -1.48915e-013 -1.43125e-014
rhumerus -30.9192 -8.81846 -75.3471
rradius 18.3788
rwrist 1.01388
rhand -13.6527 2.33408
rfingers 7.12502
rthumb 12.464 -27.2743
lclavicle -1.48915e-013 -1.43125e-014
lhumerus -40.6094 -19.7647 102.826
lradius 35.5237
lwrist 29.2533
lhand 12.3448 14.8092
lfingers 7.12502
lthumb 37.3467 40.7833
rfemur 0.62118 -17.3246 15.0543
rtibia 28.2392
rfoot -22.1585 -42.5119
rtoes 3.1747
lfemur -16.6701 -7.21315 -19.251
ltibia 26.5182
lfoot -9.68265 -17.0478
ltoes -12.5728
6
root -1.20165 17.816 -29.7562 5.27036 51.8478 5.25818
lowerback 2.46962 5.51038 1.38303
upperback 0.386496 7.41252 1.9617
thorax -1.06436 3.70554 0.989837
lowerneck 1.899 18.1482 20.4401
upperneck 8.95491 27.824 -22.4358
head 8.61631 13.7064 -7.26377
rclavicle -5.42185e-014 3.81667e-014
rhumerus -30.9371 -9.15849 -75.3233
rradius 18.2908
rwrist 0.917855
rhand -13.6726 2.30717
rfingers 7.12502
rthumb 12.4448 -27.3023
lclavicle -5.42185e-014 3.81667e-014
lhumerus -40.7752 -20.0937 102.816
lradius 35.6619
lwrist 29.8244
lhand 12.3465 15.3551
lfingers 7.12502
lthumb 37.3484 41.3287
rfemur 0.560305 -17.2533 15.0298
rtibia 28.2501
rfoot -22.0734 -42.4442
rtoes 3.16816
lfemur -16.6813 -7.09556 -19.2579
ltibia 26.5234
lfoot -9.6931 -17.022
ltoes -9.53177
7
root -1.19796 17.8172 -29.7618 5.27401 51.6877 5.2359
lowerback 2.52395 5.59647 1.44238
upperback 0.330604 7.52866 1.82375
thorax -1.12687 3.76191 0.805459
lowerneck 1.96644 18.0792 20.5081
upperneck 8.6684 27.6023 -22.2124
head 8.43048 13.617 -7.26074
rclavicle -2.81032e-014 1.90833e-014
rhumerus -31.0595 -9.25003 -75.3494
rradius 18.3739
rwrist 0.538808
rhand -13.6445 2.26791
rfingers 7.12502
rthumb 12.4719 -27.3399
lclavicle -2.81032e-014 1.90833e-014
lhumerus -40.861 -20.2637 102.74
lradius 35.6817
lwrist 30.2278
lhand 12.3081 15.8256
lfingers 7.12502
lthumb 37.3121 41.8087
rfemur 0.506618 -17.1799 15.0089
rtibia 28.2517
rfoot -21.9954 -42.3827
rtoes 3.1701
lfemur -16.6885 -7.01496 -19.2614
ltibia 26.5268
lfoot -9.69631 -16.9659
ltoes -6.45196
8
root -1.19391 17.8188 -29.7676 5.27214 51.5219 5.20471
lowerback 2.54719 5.60706 1.46863
upperback 0.304444 7.54341 1.76249
thorax -1.15512 3.76851 0.724873
lowerneck 2.10523 18.0668 20.4406
upperneck 8.31038 27.4886 -22.0853
head 8.23159 13.5806 -7.25591
rclavicle -2.34566e-014 -1.59028e-015
rhumerus -31.1743 -9.21643 -75.3624
rradius 18.5249
rwrist 0.278775
rhand -13.6134 2.25025
rfingers 7.12502
rthumb 12.5018 -27.3558
lclavicle -2.34566e-014 -1.59028e-015
lhumerus -40.7842 -20.0165 102.569
lradius 35.5724
lwrist 30.4676
lhand 12.2235 16.278
lfingers 7.12502
lthumb 37.232 42.2821
rfemur 0.453168 -17.0949 14.994
rtibia 28.2454
rfoot -21.921 -42.3253
rtoes 3.17912
lfemur -16.6959 -6.96515 -19.2593
ltibia 26.5313
lfoot -9.69644 -16.8728
ltoes -3.88007
9
root -1.18959 17.8205 -29.7736 5.26805 51.3535 5.17021
lowerback 2.52362 5.5061 1.42112
upperback 0.326754 7.40777 1.82735
thorax -1.1331 3.7016 0.824349
lowerneck 2.37579 18.1406 20.1631
upperneck 7.83087 27.5387 -22.1186
head 8.00546 13.6281 -7.256
rclavicle 5.84178e-014 1.59028e-015
rhumerus -31.2885 -8.97989 -75.3409
rradius 18.7856
rwrist 0.217339
rhand -13.5921 2.28478
rfingers 7.12502
rthumb 12.5224 -27.32
lclavicle 5.84178e-014 1.59028e-015
lhumerus -40.5201 -19.2246 102.325
lradius 35.3518
lwrist 30.5624
lhand 12.0969 16.7334
lfingers 7.12502
lthumb 37.1123 42.7688
rfemur 0.401924 -17.0061 14.9801
rtibia 28.2316
rfoot -21.8434 -42.2679
rtoes 3.18427
lfemur -16.7027 -6.93307 -19.2557
ltibia 26.5364
lfoot -9.69485 -16.758
ltoes -2.22833
10
root -1.18509 17.8223 -29.7796 5.27124 51.1835 5.14145
lowerback 2.44171 5.25417 1.26556
upperback 0.405048 7.06879 2.05691
thorax -1.05277 3.53502 1.16489
lowerneck 2.79351 18.3296 19.61
upperneck 7.22979 27.7996 -22.3531
head 7.75701 13.7839 -7.25908
rclavicle 6.58723e-014 1.43125e-014
rhumerus -31.3906 -8.52108 -75.2596
rradius 19.1613
rwrist 0.482575
rhand -13.5939 2.36406
rfingers 7.12502
rthumb 12.5207 -27.2408
lclavicle 6.58723e-014 1.43125e-014
lhumerus -40.0559 -17.7429 102.017
lradius 35.0263
lwrist 30.5112
lhand 11.9407 17.1628
lfingers 7.12502
lthumb 36.9646 43.2364
rfemur 0.349853 -16.9106 14.9634
rtibia 28.2123
rfoot -21.7727 -42.2146
rtoes 3.19042
lfemur -16.7114 -6.90561 -19.2567
ltibia 26.5411
lfoot -9.69339 -16.6346
ltoes -2.10033
